<mxfile host="app.diagrams.net" modified="2021-01-16T11:28:10.343Z" agent="5.0 (Windows NT 10.0; Win64; x64) AppleWebKit/537.36 (KHTML, like Gecko) Chrome/87.0.4280.141 Safari/537.36" etag="e26mpVbyt9n4AU-H8PpV" version="13.9.2" type="github">
  <diagram id="gqbfgf-D4078U0gD63ij" name="Page-1">
    <mxGraphModel dx="1281" dy="562" grid="1" gridSize="10" guides="1" tooltips="1" connect="1" arrows="1" fold="1" page="1" pageScale="1" pageWidth="827" pageHeight="1169" math="0" shadow="0">
      <root>
        <mxCell id="0" />
        <mxCell id="1" parent="0" />
        <mxCell id="t9AZ_KJdYy0HY85KZUj0-3" style="edgeStyle=orthogonalEdgeStyle;rounded=0;orthogonalLoop=1;jettySize=auto;html=1;" edge="1" parent="1" source="t9AZ_KJdYy0HY85KZUj0-2">
          <mxGeometry relative="1" as="geometry">
            <mxPoint x="260" y="279.9999999999999" as="targetPoint" />
            <Array as="points">
              <mxPoint x="220" y="280" />
              <mxPoint x="220" y="280" />
            </Array>
          </mxGeometry>
        </mxCell>
        <mxCell id="t9AZ_KJdYy0HY85KZUj0-2" value="&lt;font style=&quot;font-size: 18px&quot;&gt;Ankita&#39;s Computer&lt;/font&gt;" style="whiteSpace=wrap;html=1;aspect=fixed;" vertex="1" parent="1">
          <mxGeometry x="80" y="230" width="100" height="100" as="geometry" />
        </mxCell>
        <mxCell id="t9AZ_KJdYy0HY85KZUj0-6" style="edgeStyle=orthogonalEdgeStyle;rounded=0;orthogonalLoop=1;jettySize=auto;html=1;entryX=0;entryY=0.5;entryDx=0;entryDy=0;" edge="1" parent="1" source="t9AZ_KJdYy0HY85KZUj0-4" target="t9AZ_KJdYy0HY85KZUj0-5">
          <mxGeometry relative="1" as="geometry" />
        </mxCell>
        <mxCell id="t9AZ_KJdYy0HY85KZUj0-4" value="&lt;font style=&quot;font-size: 18px&quot;&gt;Windows 10&lt;/font&gt;" style="whiteSpace=wrap;html=1;aspect=fixed;" vertex="1" parent="1">
          <mxGeometry x="260" y="220" width="110" height="110" as="geometry" />
        </mxCell>
        <mxCell id="t9AZ_KJdYy0HY85KZUj0-8" style="edgeStyle=orthogonalEdgeStyle;rounded=0;orthogonalLoop=1;jettySize=auto;html=1;entryX=0;entryY=0.5;entryDx=0;entryDy=0;" edge="1" parent="1" source="t9AZ_KJdYy0HY85KZUj0-5" target="t9AZ_KJdYy0HY85KZUj0-7">
          <mxGeometry relative="1" as="geometry" />
        </mxCell>
        <mxCell id="t9AZ_KJdYy0HY85KZUj0-5" value="&lt;font style=&quot;font-size: 18px&quot;&gt;Chrome&lt;br&gt;&lt;/font&gt;" style="whiteSpace=wrap;html=1;aspect=fixed;" vertex="1" parent="1">
          <mxGeometry x="413" y="220" width="110" height="110" as="geometry" />
        </mxCell>
        <mxCell id="t9AZ_KJdYy0HY85KZUj0-9" style="edgeStyle=orthogonalEdgeStyle;rounded=0;orthogonalLoop=1;jettySize=auto;html=1;" edge="1" parent="1" source="t9AZ_KJdYy0HY85KZUj0-7">
          <mxGeometry relative="1" as="geometry">
            <mxPoint x="720" y="410" as="targetPoint" />
          </mxGeometry>
        </mxCell>
        <mxCell id="t9AZ_KJdYy0HY85KZUj0-7" value="&lt;font style=&quot;font-size: 18px&quot;&gt;abhinav.sh/blog&lt;br&gt;&lt;/font&gt;" style="whiteSpace=wrap;html=1;aspect=fixed;" vertex="1" parent="1">
          <mxGeometry x="570" y="220" width="150" height="150" as="geometry" />
        </mxCell>
        <mxCell id="t9AZ_KJdYy0HY85KZUj0-11" style="edgeStyle=orthogonalEdgeStyle;rounded=0;orthogonalLoop=1;jettySize=auto;html=1;" edge="1" parent="1" source="t9AZ_KJdYy0HY85KZUj0-10">
          <mxGeometry relative="1" as="geometry">
            <mxPoint x="560" y="440" as="targetPoint" />
          </mxGeometry>
        </mxCell>
        <mxCell id="t9AZ_KJdYy0HY85KZUj0-10" value="&lt;font style=&quot;font-size: 24px&quot;&gt;DNS&lt;/font&gt;" style="whiteSpace=wrap;html=1;" vertex="1" parent="1">
          <mxGeometry x="660" y="410" width="120" height="60" as="geometry" />
        </mxCell>
        <mxCell id="t9AZ_KJdYy0HY85KZUj0-13" style="edgeStyle=orthogonalEdgeStyle;rounded=0;orthogonalLoop=1;jettySize=auto;html=1;" edge="1" parent="1" source="t9AZ_KJdYy0HY85KZUj0-12">
          <mxGeometry relative="1" as="geometry">
            <mxPoint x="500" y="540" as="targetPoint" />
          </mxGeometry>
        </mxCell>
        <mxCell id="t9AZ_KJdYy0HY85KZUj0-12" value="&lt;font style=&quot;font-size: 24px&quot;&gt;IP/blog&lt;/font&gt;" style="whiteSpace=wrap;html=1;" vertex="1" parent="1">
          <mxGeometry x="440" y="410" width="120" height="60" as="geometry" />
        </mxCell>
        <mxCell id="t9AZ_KJdYy0HY85KZUj0-15" style="edgeStyle=orthogonalEdgeStyle;rounded=0;orthogonalLoop=1;jettySize=auto;html=1;entryX=0.5;entryY=1;entryDx=0;entryDy=0;" edge="1" parent="1" source="t9AZ_KJdYy0HY85KZUj0-14" target="t9AZ_KJdYy0HY85KZUj0-2">
          <mxGeometry relative="1" as="geometry" />
        </mxCell>
        <mxCell id="t9AZ_KJdYy0HY85KZUj0-20" value="RESPONSE" style="edgeLabel;html=1;align=center;verticalAlign=middle;resizable=0;points=[];" vertex="1" connectable="0" parent="t9AZ_KJdYy0HY85KZUj0-15">
          <mxGeometry x="0.019" y="-1" relative="1" as="geometry">
            <mxPoint as="offset" />
          </mxGeometry>
        </mxCell>
        <mxCell id="t9AZ_KJdYy0HY85KZUj0-14" value="&lt;font style=&quot;font-size: 24px&quot;&gt;404.html&lt;br&gt;&lt;/font&gt;" style="whiteSpace=wrap;html=1;" vertex="1" parent="1">
          <mxGeometry x="440" y="540" width="120" height="60" as="geometry" />
        </mxCell>
      </root>
    </mxGraphModel>
  </diagram>
</mxfile>
